<svg width="64" height="64" viewBox="0 0 64 64" fill="none" xmlns="http://www.w3.org/2000/svg">
  <!-- 背景圆圈 -->
  <circle cx="32" cy="32" r="30" fill="#E3F2FD" stroke="#2196F3" stroke-width="2"/>
  
  <!-- 狗的主体 -->
  <g transform="translate(8, 8)">
    <!-- 狗身体 -->
    <ellipse cx="24" cy="32" rx="16" ry="10" fill="#8D6E63"/>
    
    <!-- 狗头部 -->
    <ellipse cx="24" cy="18" rx="12" ry="10" fill="#A1887F"/>
    
    <!-- 狗鼻子部分 -->
    <ellipse cx="24" cy="22" rx="8" ry="6" fill="#FFCCBC"/>
    
    <!-- 狗耳朵 -->
    <ellipse cx="16" cy="12" rx="4" ry="8" fill="#8D6E63" transform="rotate(-30 16 12)"/>
    <ellipse cx="32" cy="12" rx="4" ry="8" fill="#8D6E63" transform="rotate(30 32 12)"/>
    
    <!-- 眼睛 -->
    <circle cx="20" cy="16" r="3" fill="#FFFFFF"/>
    <circle cx="28" cy="16" r="3" fill="#FFFFFF"/>
    <circle cx="20" cy="16" r="2" fill="#212121"/>
    <circle cx="28" cy="16" r="2" fill="#212121"/>
    <circle cx="21" cy="15" r="1" fill="#FFFFFF"/>
    <circle cx="29" cy="15" r="1" fill="#FFFFFF"/>
    
    <!-- 鼻子 -->
    <ellipse cx="24" cy="20" rx="2" ry="1.5" fill="#212121"/>
    <circle cx="24" cy="19" r="0.5" fill="#FFFFFF"/>
    
    <!-- 嘴巴 -->
    <path d="M24 22 L24 24" stroke="#212121" stroke-width="2"/>
    <path d="M20 24 Q24 26 28 24" stroke="#212121" stroke-width="2" fill="none"/>
    
    <!-- 舌头 -->
    <ellipse cx="24" cy="26" rx="3" ry="1.5" fill="#FF5722"/>
    
    <!-- 狗腿 -->
    <ellipse cx="16" cy="38" rx="3" ry="6" fill="#8D6E63"/>
    <ellipse cx="22" cy="38" rx="3" ry="6" fill="#8D6E63"/>
    <ellipse cx="26" cy="38" rx="3" ry="6" fill="#8D6E63"/>
    <ellipse cx="32" cy="38" rx="3" ry="6" fill="#8D6E63"/>
    
    <!-- 狗爪 -->
    <ellipse cx="16" cy="44" rx="2" ry="1" fill="#424242"/>
    <ellipse cx="22" cy="44" rx="2" ry="1" fill="#424242"/>
    <ellipse cx="26" cy="44" rx="2" ry="1" fill="#424242"/>
    <ellipse cx="32" cy="44" rx="2" ry="1" fill="#424242"/>
    
    <!-- 狗尾巴 -->
    <path d="M40 30 Q44 26 42 34 Q40 38 38 34 Q36 30 40 30" fill="#8D6E63"/>
    
    <!-- 狗项圈 -->
    <ellipse cx="24" cy="28" rx="14" ry="2" fill="#F44336"/>
    <rect x="22" y="27" width="4" height="2" fill="#FFD700"/>
    
    <!-- 装饰斑点 -->
    <circle cx="18" cy="30" r="1.5" fill="#6D4C41" opacity="0.7"/>
    <circle cx="30" cy="30" r="1.5" fill="#6D4C41" opacity="0.7"/>
    <circle cx="24" cy="34" r="1.5" fill="#6D4C41" opacity="0.7"/>
    
    <!-- 可爱的腮红 -->
    <circle cx="16" cy="18" r="2" fill="#FFAB91" opacity="0.5"/>
    <circle cx="32" cy="18" r="2" fill="#FFAB91" opacity="0.5"/>
    
    <!-- 骨头装饰 -->
    <path d="M6 20 Q4 18 6 16 Q8 18 6 20 Q4 22 6 24 Q8 22 6 20" fill="#FFFFFF" stroke="#E0E0E0" stroke-width="1"/>
    <path d="M42 20 Q40 18 42 16 Q44 18 42 20 Q40 22 42 24 Q44 22 42 20" fill="#FFFFFF" stroke="#E0E0E0" stroke-width="1"/>
  </g>
</svg>