<svg width="64" height="64" viewBox="0 0 64 64" fill="none" xmlns="http://www.w3.org/2000/svg">
  <!-- 背景圆圈 -->
  <circle cx="32" cy="32" r="30" fill="#E8F5E8" stroke="#4CAF50" stroke-width="2"/>
  
  <!-- 龙的主体 -->
  <g transform="translate(8, 8)">
    <!-- 龙身体 -->
    <ellipse cx="24" cy="32" rx="18" ry="10" fill="#2E7D32" opacity="0.9"/>
    
    <!-- 龙头部 -->
    <ellipse cx="24" cy="20" rx="14" ry="12" fill="#388E3C"/>
    
    <!-- 龙角 -->
    <path d="M18 8 L16 2 L20 4 L18 12 Z" fill="#FFD700"/>
    <path d="M30 8 L32 2 L28 4 L30 12 Z" fill="#FFD700"/>
    
    <!-- 龙鳞装饰 -->
    <circle cx="20" cy="16" r="2" fill="#1B5E20" opacity="0.6"/>
    <circle cx="28" cy="16" r="2" fill="#1B5E20" opacity="0.6"/>
    <circle cx="24" cy="12" r="1.5" fill="#1B5E20" opacity="0.6"/>
    <circle cx="18" cy="28" r="2" fill="#1B5E20" opacity="0.6"/>
    <circle cx="30" cy="28" r="2" fill="#1B5E20" opacity="0.6"/>
    <circle cx="24" cy="32" r="1.5" fill="#1B5E20" opacity="0.6"/>
    
    <!-- 眼睛 -->
    <circle cx="20" cy="18" r="3" fill="#FFFFFF"/>
    <circle cx="28" cy="18" r="3" fill="#FFFFFF"/>
    <circle cx="20" cy="18" r="2" fill="#FF5722"/>
    <circle cx="28" cy="18" r="2" fill="#FF5722"/>
    <circle cx="21" cy="17" r="1" fill="#FFFFFF"/>
    <circle cx="29" cy="17" r="1" fill="#FFFFFF"/>
    
    <!-- 龙鼻 -->
    <ellipse cx="24" cy="24" rx="3" ry="2" fill="#FFCDD2"/>
    <circle cx="23" cy="23" r="0.5" fill="#E57373"/>
    <circle cx="25" cy="23" r="0.5" fill="#E57373"/>
    
    <!-- 龙须 -->
    <path d="M12 20 Q8 18 6 22" stroke="#FFD700" stroke-width="2" fill="none"/>
    <path d="M36 20 Q40 18 42 22" stroke="#FFD700" stroke-width="2" fill="none"/>
    <path d="M10 24 Q6 22 4 26" stroke="#FFD700" stroke-width="2" fill="none"/>
    <path d="M38 24 Q42 22 44 26" stroke="#FFD700" stroke-width="2" fill="none"/>
    
    <!-- 龙爪 -->
    <path d="M14 38 L12 42 L18 42 L16 38 Z" fill="#FFD700"/>
    <path d="M34 38 L32 42 L38 42 L36 38 Z" fill="#FFD700"/>
    
    <!-- 龙尾装饰 -->
    <path d="M6 32 Q2 28 4 36 Q8 40 12 36 Q10 32 6 32" fill="#2E7D32"/>
  </g>
</svg>