<svg width="64" height="64" viewBox="0 0 64 64" fill="none" xmlns="http://www.w3.org/2000/svg">
  <!-- 背景圆圈 -->
  <circle cx="32" cy="32" r="30" fill="#FFF3E0" stroke="#FF9800" stroke-width="2"/>
  
  <!-- 马的主体 -->
  <g transform="translate(8, 8)">
    <!-- 马身体 -->
    <ellipse cx="24" cy="32" rx="18" ry="12" fill="#8D6E63"/>
    
    <!-- 马头部 -->
    <ellipse cx="24" cy="18" rx="12" ry="14" fill="#A1887F"/>
    
    <!-- 马鼻子部分 -->
    <ellipse cx="24" cy="26" rx="8" ry="6" fill="#8D6E63"/>
    
    <!-- 马耳朵 -->
    <ellipse cx="18" cy="8" rx="3" ry="6" fill="#8D6E63" transform="rotate(-20 18 8)"/>
    <ellipse cx="30" cy="8" rx="3" ry="6" fill="#8D6E63" transform="rotate(20 30 8)"/>
    <ellipse cx="18" cy="8" rx="1.5" ry="4" fill="#FFCCBC" transform="rotate(-20 18 8)"/>
    <ellipse cx="30" cy="8" rx="1.5" ry="4" fill="#FFCCBC" transform="rotate(20 30 8)"/>
    
    <!-- 马鬃毛 -->
    <path d="M12 12 Q16 8 20 12 Q24 6 28 12 Q32 8 36 12 Q32 16 28 14 Q24 18 20 14 Q16 16 12 12" fill="#5D4037"/>
    
    <!-- 眼睛 -->
    <circle cx="20" cy="16" r="3" fill="#FFFFFF"/>
    <circle cx="28" cy="16" r="3" fill="#FFFFFF"/>
    <circle cx="20" cy="16" r="2" fill="#212121"/>
    <circle cx="28" cy="16" r="2" fill="#212121"/>
    <circle cx="21" cy="15" r="1" fill="#FFFFFF"/>
    <circle cx="29" cy="15" r="1" fill="#FFFFFF"/>
    
    <!-- 鼻孔 -->
    <ellipse cx="22" cy="26" rx="1" ry="2" fill="#5D4037"/>
    <ellipse cx="26" cy="26" rx="1" ry="2" fill="#5D4037"/>
    
    <!-- 嘴巴 -->
    <path d="M20 30 Q24 32 28 30" stroke="#5D4037" stroke-width="2" fill="none"/>
    
    <!-- 马腿 -->
    <rect x="14" y="40" width="4" height="8" fill="#8D6E63"/>
    <rect x="20" y="40" width="4" height="8" fill="#8D6E63"/>
    <rect x="26" y="40" width="4" height="8" fill="#8D6E63"/>
    <rect x="32" y="40" width="4" height="8" fill="#8D6E63"/>
    
    <!-- 马蹄 -->
    <ellipse cx="16" cy="48" rx="2" ry="1" fill="#424242"/>
    <ellipse cx="22" cy="48" rx="2" ry="1" fill="#424242"/>
    <ellipse cx="28" cy="48" rx="2" ry="1" fill="#424242"/>
    <ellipse cx="34" cy="48" rx="2" ry="1" fill="#424242"/>
    
    <!-- 马尾巴 -->
    <path d="M42 32 Q46 28 44 36 Q42 40 40 36 Q38 32 42 32" fill="#5D4037"/>
    
    <!-- 装饰斑点 -->
    <circle cx="18" cy="30" r="1" fill="#6D4C41" opacity="0.6"/>
    <circle cx="30" cy="30" r="1" fill="#6D4C41" opacity="0.6"/>
    <circle cx="24" cy="36" r="1" fill="#6D4C41" opacity="0.6"/>
    
    <!-- 马鞍装饰 -->
    <ellipse cx="24" cy="28" rx="14" ry="4" fill="#FF9800" opacity="0.3"/>
  </g>
</svg>