<svg width="64" height="64" viewBox="0 0 64 64" fill="none" xmlns="http://www.w3.org/2000/svg">
  <!-- 神秘图腾背景圆圈 -->
  <circle cx="32" cy="32" r="30" fill="#2D1B69" stroke="#FFD700" stroke-width="2"/>
  
  <!-- 外层装饰圆环 -->
  <circle cx="32" cy="32" r="24" fill="none" stroke="#FFD700" stroke-width="1" stroke-dasharray="2,2"/>
  
  <!-- 中心神秘符号 -->
  <g transform="translate(32, 32)">
    <!-- 中心三角形 -->
    <path d="M0,-12 L10,8 L-10,8 Z" fill="#FFD700" stroke="#2D1B69" stroke-width="1"/>
    
    <!-- 内部眼睛符号 -->
    <ellipse cx="0" cy="-2" rx="6" ry="3" fill="#2D1B69"/>
    <circle cx="0" cy="-2" r="2" fill="#FFD700"/>
    <circle cx="0" cy="-2" r="1" fill="#2D1B69"/>
    
    <!-- 底部神秘线条 -->
    <path d="M-6,4 Q0,8 6,4" stroke="#FFD700" stroke-width="2" fill="none"/>
    <path d="M-4,6 Q0,9 4,6" stroke="#FFD700" stroke-width="1" fill="none"/>
  </g>
  
  <!-- 四个角的装饰符号 -->
  <g fill="#FFD700">
    <!-- 上 -->
    <path d="M32,4 L34,8 L30,8 Z"/>
    <!-- 下 -->
    <path d="M32,60 L30,56 L34,56 Z"/>
    <!-- 左 -->
    <path d="M4,32 L8,30 L8,34 Z"/>
    <!-- 右 -->
    <path d="M60,32 L56,34 L56,30 Z"/>
  </g>
  
  <!-- 神秘光环效果 -->
  <circle cx="32" cy="32" r="18" fill="none" stroke="#FFD700" stroke-width="0.5" opacity="0.6"/>
  <circle cx="32" cy="32" r="14" fill="none" stroke="#FFD700" stroke-width="0.3" opacity="0.4"/>
</svg>
