<svg width="64" height="64" viewBox="0 0 64 64" fill="none" xmlns="http://www.w3.org/2000/svg">
  <!-- 背景圆圈 -->
  <circle cx="32" cy="32" r="30" fill="#FFF8E1" stroke="#FFC107" stroke-width="2"/>
  
  <!-- 猴子的主体 -->
  <g transform="translate(8, 8)">
    <!-- 猴子身体 -->
    <ellipse cx="24" cy="32" rx="14" ry="10" fill="#8D6E63"/>
    
    <!-- 猴子头部 -->
    <circle cx="24" cy="18" r="13" fill="#A1887F"/>
    
    <!-- 猴子脸部区域 -->
    <ellipse cx="24" cy="20" rx="10" ry="8" fill="#FFCCBC"/>
    
    <!-- 猴子耳朵 -->
    <circle cx="14" cy="14" r="5" fill="#8D6E63"/>
    <circle cx="34" cy="14" r="5" fill="#8D6E63"/>
    <circle cx="14" cy="14" r="3" fill="#FFCCBC"/>
    <circle cx="34" cy="14" r="3" fill="#FFCCBC"/>
    
    <!-- 眼睛 -->
    <circle cx="20" cy="16" r="3" fill="#FFFFFF"/>
    <circle cx="28" cy="16" r="3" fill="#FFFFFF"/>
    <circle cx="20" cy="16" r="2" fill="#212121"/>
    <circle cx="28" cy="16" r="2" fill="#212121"/>
    <circle cx="21" cy="15" r="1" fill="#FFFFFF"/>
    <circle cx="29" cy="15" r="1" fill="#FFFFFF"/>
    
    <!-- 鼻子 -->
    <ellipse cx="24" cy="20" rx="1.5" ry="1" fill="#8D6E63"/>
    <circle cx="23" cy="20" r="0.3" fill="#5D4037"/>
    <circle cx="25" cy="20" r="0.3" fill="#5D4037"/>
    
    <!-- 嘴巴 -->
    <path d="M20 22 Q24 25 28 22" stroke="#5D4037" stroke-width="2" fill="none"/>
    <path d="M24 25 L24 27" stroke="#5D4037" stroke-width="1"/>
    
    <!-- 猴子手臂 -->
    <ellipse cx="12" cy="28" rx="4" ry="8" fill="#8D6E63" transform="rotate(-30 12 28)"/>
    <ellipse cx="36" cy="28" rx="4" ry="8" fill="#8D6E63" transform="rotate(30 36 28)"/>
    
    <!-- 猴子手掌 -->
    <circle cx="8" cy="24" r="3" fill="#FFCCBC"/>
    <circle cx="40" cy="24" r="3" fill="#FFCCBC"/>
    
    <!-- 猴子腿 -->
    <ellipse cx="18" cy="38" rx="3" ry="6" fill="#8D6E63"/>
    <ellipse cx="30" cy="38" rx="3" ry="6" fill="#8D6E63"/>
    
    <!-- 猴子脚 -->
    <ellipse cx="18" cy="44" rx="4" ry="2" fill="#FFCCBC"/>
    <ellipse cx="30" cy="44" rx="4" ry="2" fill="#FFCCBC"/>
    
    <!-- 猴子尾巴 -->
    <path d="M38 32 Q44 28 42 36 Q40 42 36 38 Q34 34 38 32" stroke="#8D6E63" stroke-width="4" fill="none" stroke-linecap="round"/>
    
    <!-- 装饰毛发 -->
    <circle cx="16" cy="12" r="1" fill="#6D4C41" opacity="0.6"/>
    <circle cx="32" cy="12" r="1" fill="#6D4C41" opacity="0.6"/>
    <circle cx="24" cy="8" r="1" fill="#6D4C41" opacity="0.6"/>
    
    <!-- 可爱的腮红 -->
    <circle cx="16" cy="18" r="2" fill="#FFAB91" opacity="0.6"/>
    <circle cx="32" cy="18" r="2" fill="#FFAB91" opacity="0.6"/>
    
    <!-- 香蕉装饰 -->
    <path d="M6 20 Q4 18 6 16 Q8 18 6 20" fill="#FFEB3B"/>
    <path d="M42 20 Q44 18 42 16 Q40 18 42 20" fill="#FFEB3B"/>
  </g>
</svg>