<svg width="64" height="64" viewBox="0 0 64 64" fill="none" xmlns="http://www.w3.org/2000/svg">
  <!-- 背景圆圈 -->
  <circle cx="32" cy="32" r="30" fill="#E3F2FD" stroke="#2196F3" stroke-width="2"/>
  
  <!-- 牛的主体 -->
  <g transform="translate(8, 8)">
    <!-- 牛身体 -->
    <ellipse cx="24" cy="32" rx="18" ry="12" fill="#8D6E63"/>
    
    <!-- 牛头部 -->
    <ellipse cx="24" cy="18" rx="14" ry="12" fill="#A1887F"/>
    
    <!-- 牛角 -->
    <path d="M16 8 Q14 4 12 8 Q14 10 16 12" fill="#FFEB3B"/>
    <path d="M32 8 Q34 4 36 8 Q34 10 32 12" fill="#FFEB3B"/>
    
    <!-- 耳朵 -->
    <ellipse cx="14" cy="14" rx="4" ry="6" fill="#8D6E63"/>
    <ellipse cx="34" cy="14" rx="4" ry="6" fill="#8D6E63"/>
    <ellipse cx="14" cy="14" rx="2" ry="3" fill="#FFCDD2"/>
    <ellipse cx="34" cy="14" rx="2" ry="3" fill="#FFCDD2"/>
    
    <!-- 眼睛 -->
    <circle cx="20" cy="16" r="3" fill="#FFFFFF"/>
    <circle cx="28" cy="16" r="3" fill="#FFFFFF"/>
    <circle cx="20" cy="16" r="2" fill="#212121"/>
    <circle cx="28" cy="16" r="2" fill="#212121"/>
    <circle cx="21" cy="15" r="1" fill="#FFFFFF"/>
    <circle cx="29" cy="15" r="1" fill="#FFFFFF"/>
    
    <!-- 鼻子 -->
    <ellipse cx="24" cy="22" rx="4" ry="3" fill="#FFCDD2"/>
    <ellipse cx="22" cy="21" rx="1" ry="0.5" fill="#E57373"/>
    <ellipse cx="26" cy="21" rx="1" ry="0.5" fill="#E57373"/>
    
    <!-- 嘴巴 -->
    <path d="M24 24 Q20 26 18 24" stroke="#212121" stroke-width="1.5" fill="none"/>
    <path d="M24 24 Q28 26 30 24" stroke="#212121" stroke-width="1.5" fill="none"/>
    
    <!-- 牛斑点 -->
    <ellipse cx="18" cy="28" rx="3" ry="2" fill="#5D4037" opacity="0.8"/>
    <ellipse cx="30" cy="30" rx="4" ry="3" fill="#5D4037" opacity="0.8"/>
    <ellipse cx="22" cy="36" rx="3" ry="2" fill="#5D4037" opacity="0.8"/>
    <ellipse cx="28" cy="38" rx="2" ry="1.5" fill="#5D4037" opacity="0.8"/>
    
    <!-- 前腿 -->
    <rect x="16" y="40" width="4" height="8" rx="2" fill="#8D6E63"/>
    <rect x="28" y="40" width="4" height="8" rx="2" fill="#8D6E63"/>
    
    <!-- 蹄子 -->
    <ellipse cx="18" cy="46" rx="3" ry="2" fill="#424242"/>
    <ellipse cx="30" cy="46" rx="3" ry="2" fill="#424242"/>
    
    <!-- 尾巴 -->
    <path d="M42 34 Q46 32 48 36 Q46 40 42 38 Q40 36 42 34" fill="#8D6E63"/>
    <ellipse cx="46" cy="38" rx="2" ry="3" fill="#5D4037"/>
  </g>
</svg>