<svg width="64" height="64" viewBox="0 0 64 64" fill="none" xmlns="http://www.w3.org/2000/svg">
  <!-- 背景圆圈 -->
  <circle cx="32" cy="32" r="30" fill="#FCE4EC" stroke="#E91E63" stroke-width="2"/>
  
  <!-- 猪的主体 -->
  <g transform="translate(8, 8)">
    <!-- 猪身体 -->
    <ellipse cx="24" cy="32" rx="18" ry="12" fill="#FFCDD2"/>
    
    <!-- 猪头部 -->
    <circle cx="24" cy="18" r="14" fill="#F8BBD9"/>
    
    <!-- 猪鼻子 -->
    <ellipse cx="24" cy="22" rx="6" ry="4" fill="#FFCDD2"/>
    <ellipse cx="22" cy="22" rx="1" ry="1.5" fill="#E91E63"/>
    <ellipse cx="26" cy="22" rx="1" ry="1.5" fill="#E91E63"/>
    
    <!-- 猪耳朵 -->
    <path d="M16 10 Q14 6 18 8 Q20 12 16 10" fill="#F8BBD9"/>
    <path d="M32 10 Q34 6 30 8 Q28 12 32 10" fill="#F8BBD9"/>
    <path d="M16 10 Q15 7 17 8 Q18 11 16 10" fill="#FFCDD2"/>
    <path d="M32 10 Q33 7 31 8 Q30 11 32 10" fill="#FFCDD2"/>
    
    <!-- 眼睛 -->
    <circle cx="20" cy="16" r="3" fill="#FFFFFF"/>
    <circle cx="28" cy="16" r="3" fill="#FFFFFF"/>
    <circle cx="20" cy="16" r="2" fill="#212121"/>
    <circle cx="28" cy="16" r="2" fill="#212121"/>
    <circle cx="21" cy="15" r="1" fill="#FFFFFF"/>
    <circle cx="29" cy="15" r="1" fill="#FFFFFF"/>
    
    <!-- 嘴巴 -->
    <path d="M20 26 Q24 28 28 26" stroke="#E91E63" stroke-width="2" fill="none"/>
    
    <!-- 猪腿 -->
    <ellipse cx="14" cy="40" rx="4" ry="6" fill="#FFCDD2"/>
    <ellipse cx="22" cy="40" rx="4" ry="6" fill="#FFCDD2"/>
    <ellipse cx="26" cy="40" rx="4" ry="6" fill="#FFCDD2"/>
    <ellipse cx="34" cy="40" rx="4" ry="6" fill="#FFCDD2"/>
    
    <!-- 猪蹄 -->
    <ellipse cx="14" cy="46" rx="2" ry="1" fill="#8D6E63"/>
    <ellipse cx="22" cy="46" rx="2" ry="1" fill="#8D6E63"/>
    <ellipse cx="26" cy="46" rx="2" ry="1" fill="#8D6E63"/>
    <ellipse cx="34" cy="46" rx="2" ry="1" fill="#8D6E63"/>
    
    <!-- 猪尾巴 -->
    <path d="M42 32 Q46 28 44 36 Q42 40 40 36 Q38 32 42 32" stroke="#F8BBD9" stroke-width="4" fill="none" stroke-linecap="round"/>
    
    <!-- 装饰斑点 -->
    <circle cx="18" cy="30" r="1.5" fill="#E91E63" opacity="0.4"/>
    <circle cx="30" cy="30" r="1.5" fill="#E91E63" opacity="0.4"/>
    <circle cx="24" cy="36" r="1.5" fill="#E91E63" opacity="0.4"/>
    
    <!-- 可爱的腮红 -->
    <circle cx="16" cy="18" r="3" fill="#FFAB91" opacity="0.6"/>
    <circle cx="32" cy="18" r="3" fill="#FFAB91" opacity="0.6"/>
    
    <!-- 泥巴装饰 -->
    <ellipse cx="20" cy="34" rx="2" ry="1" fill="#8D6E63" opacity="0.3"/>
    <ellipse cx="28" cy="34" rx="2" ry="1" fill="#8D6E63" opacity="0.3"/>
    
    <!-- 小花装饰 -->
    <circle cx="8" cy="20" r="2" fill="#FFEB3B"/>
    <circle cx="6" cy="18" r="1" fill="#FFEB3B"/>
    <circle cx="10" cy="18" r="1" fill="#FFEB3B"/>
    <circle cx="6" cy="22" r="1" fill="#FFEB3B"/>
    <circle cx="10" cy="22" r="1" fill="#FFEB3B"/>
    
    <circle cx="40" cy="20" r="2" fill="#FFEB3B"/>
    <circle cx="38" cy="18" r="1" fill="#FFEB3B"/>
    <circle cx="42" cy="18" r="1" fill="#FFEB3B"/>
    <circle cx="38" cy="22" r="1" fill="#FFEB3B"/>
    <circle cx="42" cy="22" r="1" fill="#FFEB3B"/>
  </g>
</svg>