<svg width="64" height="64" viewBox="0 0 64 64" fill="none" xmlns="http://www.w3.org/2000/svg">
  <!-- 背景圆圈 -->
  <circle cx="32" cy="32" r="30" fill="#FCE4EC" stroke="#E91E63" stroke-width="2"/>
  
  <!-- 兔子的主体 -->
  <g transform="translate(8, 8)">
    <!-- 兔子身体 -->
    <ellipse cx="24" cy="32" rx="16" ry="10" fill="#F8BBD9"/>
    
    <!-- 兔子头部 -->
    <circle cx="24" cy="18" r="14" fill="#FCE4EC"/>
    
    <!-- 长耳朵 -->
    <ellipse cx="18" cy="8" rx="4" ry="12" fill="#F8BBD9"/>
    <ellipse cx="30" cy="8" rx="4" ry="12" fill="#F8BBD9"/>
    <ellipse cx="18" cy="8" rx="2" ry="8" fill="#FFCDD2"/>
    <ellipse cx="30" cy="8" rx="2" ry="8" fill="#FFCDD2"/>
    
    <!-- 眼睛 -->
    <circle cx="20" cy="16" r="3" fill="#FFFFFF"/>
    <circle cx="28" cy="16" r="3" fill="#FFFFFF"/>
    <circle cx="20" cy="16" r="2" fill="#212121"/>
    <circle cx="28" cy="16" r="2" fill="#212121"/>
    <circle cx="21" cy="15" r="1" fill="#FFFFFF"/>
    <circle cx="29" cy="15" r="1" fill="#FFFFFF"/>
    
    <!-- 鼻子 -->
    <path d="M24 20 L22 22 L26 22 Z" fill="#FFCDD2"/>
    <circle cx="24" cy="21" r="0.5" fill="#E57373"/>
    
    <!-- 嘴巴 -->
    <path d="M24 22 Q20 24 18 22" stroke="#212121" stroke-width="1" fill="none"/>
    <path d="M24 22 Q28 24 30 22" stroke="#212121" stroke-width="1" fill="none"/>
    
    <!-- 胡须 -->
    <line x1="12" y1="20" x2="18" y2="20" stroke="#212121" stroke-width="1"/>
    <line x1="12" y1="22" x2="18" y2="22" stroke="#212121" stroke-width="1"/>
    <line x1="30" y1="20" x2="36" y2="20" stroke="#212121" stroke-width="1"/>
    <line x1="30" y1="22" x2="36" y2="22" stroke="#212121" stroke-width="1"/>
    
    <!-- 前爪 -->
    <ellipse cx="18" cy="38" rx="3" ry="5" fill="#F8BBD9"/>
    <ellipse cx="30" cy="38" rx="3" ry="5" fill="#F8BBD9"/>
    
    <!-- 短尾巴 -->
    <circle cx="40" cy="32" r="4" fill="#F8BBD9"/>
    <circle cx="40" cy="32" r="2" fill="#FFFFFF"/>
    
    <!-- 装饰花纹 -->
    <circle cx="20" cy="30" r="1" fill="#E91E63" opacity="0.5"/>
    <circle cx="28" cy="30" r="1" fill="#E91E63" opacity="0.5"/>
    <circle cx="24" cy="34" r="1" fill="#E91E63" opacity="0.5"/>
    
    <!-- 可爱的腮红 -->
    <circle cx="16" cy="20" r="2" fill="#FFCDD2" opacity="0.6"/>
    <circle cx="32" cy="20" r="2" fill="#FFCDD2" opacity="0.6"/>
  </g>
</svg>