<svg width="64" height="64" viewBox="0 0 64 64" fill="none" xmlns="http://www.w3.org/2000/svg">
  <!-- 背景圆圈 -->
  <circle cx="32" cy="32" r="30" fill="#F3E5F5" stroke="#9C27B0" stroke-width="2"/>
  
  <!-- 老鼠的主体 -->
  <g transform="translate(8, 8)">
    <!-- 老鼠身体 -->
    <ellipse cx="24" cy="32" rx="16" ry="10" fill="#9E9E9E"/>
    
    <!-- 老鼠头部 -->
    <ellipse cx="24" cy="18" rx="12" ry="10" fill="#BDBDBD"/>
    
    <!-- 耳朵 -->
    <circle cx="16" cy="12" r="6" fill="#9E9E9E"/>
    <circle cx="32" cy="12" r="6" fill="#9E9E9E"/>
    <circle cx="16" cy="12" r="3" fill="#FFCDD2"/>
    <circle cx="32" cy="12" r="3" fill="#FFCDD2"/>
    
    <!-- 眼睛 -->
    <circle cx="20" cy="16" r="3" fill="#FFFFFF"/>
    <circle cx="28" cy="16" r="3" fill="#FFFFFF"/>
    <circle cx="20" cy="16" r="2" fill="#212121"/>
    <circle cx="28" cy="16" r="2" fill="#212121"/>
    <circle cx="21" cy="15" r="1" fill="#FFFFFF"/>
    <circle cx="29" cy="15" r="1" fill="#FFFFFF"/>
    
    <!-- 鼻子 -->
    <ellipse cx="24" cy="20" rx="2" ry="1.5" fill="#FFCDD2"/>
    <circle cx="24" cy="19" r="0.5" fill="#E57373"/>
    
    <!-- 嘴巴 -->
    <path d="M24 21 Q20 23 18 21" stroke="#212121" stroke-width="1" fill="none"/>
    <path d="M24 21 Q28 23 30 21" stroke="#212121" stroke-width="1" fill="none"/>
    
    <!-- 胡须 -->
    <line x1="12" y1="18" x2="18" y2="18" stroke="#212121" stroke-width="1"/>
    <line x1="12" y1="20" x2="18" y2="20" stroke="#212121" stroke-width="1"/>
    <line x1="30" y1="18" x2="36" y2="18" stroke="#212121" stroke-width="1"/>
    <line x1="30" y1="20" x2="36" y2="20" stroke="#212121" stroke-width="1"/>
    
    <!-- 前爪 -->
    <ellipse cx="18" cy="38" rx="3" ry="5" fill="#9E9E9E"/>
    <ellipse cx="30" cy="38" rx="3" ry="5" fill="#9E9E9E"/>
    
    <!-- 尾巴 -->
    <path d="M40 32 Q44 28 46 32 Q48 36 44 38 Q40 36 38 32 Q40 30 40 32" fill="#9E9E9E"/>
    
    <!-- 装饰斑点 -->
    <circle cx="20" cy="30" r="1" fill="#757575" opacity="0.7"/>
    <circle cx="28" cy="30" r="1" fill="#757575" opacity="0.7"/>
    <circle cx="24" cy="34" r="1" fill="#757575" opacity="0.7"/>
  </g>
</svg>