<svg width="64" height="64" viewBox="0 0 64 64" fill="none" xmlns="http://www.w3.org/2000/svg">
  <!-- 背景圆圈 -->
  <circle cx="32" cy="32" r="30" fill="#FFF3E0" stroke="#FF9800" stroke-width="2"/>
  
  <!-- 鸡的主体 -->
  <g transform="translate(8, 8)">
    <!-- 鸡身体 -->
    <ellipse cx="24" cy="32" rx="16" ry="12" fill="#FFCC02"/>
    
    <!-- 鸡头部 -->
    <circle cx="24" cy="18" r="12" fill="#FFD54F"/>
    
    <!-- 鸡冠 -->
    <path d="M16 8 Q18 4 20 8 Q22 4 24 8 Q26 4 28 8 Q30 4 32 8 Q28 12 24 10 Q20 12 16 8" fill="#F44336"/>
    
    <!-- 鸡嘴 -->
    <path d="M24 20 L18 22 L24 24 Z" fill="#FF9800"/>
    
    <!-- 眼睛 -->
    <circle cx="22" cy="16" r="3" fill="#FFFFFF"/>
    <circle cx="26" cy="16" r="3" fill="#FFFFFF"/>
    <circle cx="22" cy="16" r="2" fill="#212121"/>
    <circle cx="26" cy="16" r="2" fill="#212121"/>
    <circle cx="23" cy="15" r="1" fill="#FFFFFF"/>
    <circle cx="27" cy="15" r="1" fill="#FFFFFF"/>
    
    <!-- 鸡肉垂 -->
    <ellipse cx="24" cy="26" rx="3" ry="2" fill="#F44336"/>
    
    <!-- 鸡翅膀 -->
    <ellipse cx="16" cy="30" rx="6" ry="10" fill="#FFA726" transform="rotate(-20 16 30)"/>
    <ellipse cx="32" cy="30" rx="6" ry="10" fill="#FFA726" transform="rotate(20 32 30)"/>
    
    <!-- 翅膀羽毛纹理 -->
    <path d="M12 26 Q16 24 20 26" stroke="#FF8F00" stroke-width="2" fill="none"/>
    <path d="M12 30 Q16 28 20 30" stroke="#FF8F00" stroke-width="2" fill="none"/>
    <path d="M12 34 Q16 32 20 34" stroke="#FF8F00" stroke-width="2" fill="none"/>
    
    <path d="M28 26 Q32 24 36 26" stroke="#FF8F00" stroke-width="2" fill="none"/>
    <path d="M28 30 Q32 28 36 30" stroke="#FF8F00" stroke-width="2" fill="none"/>
    <path d="M28 34 Q32 32 36 34" stroke="#FF8F00" stroke-width="2" fill="none"/>
    
    <!-- 鸡腿 -->
    <ellipse cx="20" cy="40" rx="3" ry="6" fill="#FFB74D"/>
    <ellipse cx="28" cy="40" rx="3" ry="6" fill="#FFB74D"/>
    
    <!-- 鸡爪 -->
    <path d="M18 46 L16 48 M20 46 L18 48 M22 46 L20 48" stroke="#FF8F00" stroke-width="2" stroke-linecap="round"/>
    <path d="M26 46 L24 48 M28 46 L26 48 M30 46 L28 48" stroke="#FF8F00" stroke-width="2" stroke-linecap="round"/>
    
    <!-- 鸡尾巴羽毛 -->
    <path d="M40 28 Q44 24 42 32 Q40 36 38 32 Q36 28 40 28" fill="#4CAF50"/>
    <path d="M42 26 Q46 22 44 30 Q42 34 40 30 Q38 26 42 26" fill="#2196F3"/>
    <path d="M44 24 Q48 20 46 28 Q44 32 42 28 Q40 24 44 24" fill="#9C27B0"/>
    
    <!-- 身体羽毛装饰 -->
    <circle cx="20" cy="28" r="1" fill="#FF8F00" opacity="0.6"/>
    <circle cx="28" cy="28" r="1" fill="#FF8F00" opacity="0.6"/>
    <circle cx="24" cy="34" r="1" fill="#FF8F00" opacity="0.6"/>
    
    <!-- 可爱的腮红 -->
    <circle cx="18" cy="18" r="2" fill="#FFAB91" opacity="0.5"/>
    <circle cx="30" cy="18" r="2" fill="#FFAB91" opacity="0.5"/>
  </g>
</svg>