<svg width="64" height="64" viewBox="0 0 64 64" fill="none" xmlns="http://www.w3.org/2000/svg">
  <!-- 背景圆圈 -->
  <circle cx="32" cy="32" r="30" fill="#FFF3E0" stroke="#FF9800" stroke-width="2"/>
  
  <!-- 老虎的主体 -->
  <g transform="translate(8, 8)">
    <!-- 老虎身体 -->
    <ellipse cx="24" cy="32" rx="18" ry="12" fill="#FF9800"/>
    
    <!-- 老虎头部 -->
    <circle cx="24" cy="18" r="16" fill="#FFB74D"/>
    
    <!-- 老虎条纹 -->
    <path d="M16 12 Q24 14 32 12" stroke="#212121" stroke-width="2" fill="none"/>
    <path d="M14 18 Q24 20 34 18" stroke="#212121" stroke-width="2" fill="none"/>
    <path d="M16 24 Q24 26 32 24" stroke="#212121" stroke-width="2" fill="none"/>
    <path d="M18 30 Q24 32 30 30" stroke="#212121" stroke-width="2" fill="none"/>
    
    <!-- 耳朵 -->
    <ellipse cx="14" cy="8" rx="4" ry="6" fill="#FF9800"/>
    <ellipse cx="34" cy="8" rx="4" ry="6" fill="#FF9800"/>
    <ellipse cx="14" cy="8" rx="2" ry="3" fill="#FFCDD2"/>
    <ellipse cx="34" cy="8" rx="2" ry="3" fill="#FFCDD2"/>
    
    <!-- 眼睛 -->
    <circle cx="19" cy="16" r="3" fill="#FFFFFF"/>
    <circle cx="29" cy="16" r="3" fill="#FFFFFF"/>
    <circle cx="19" cy="16" r="2" fill="#212121"/>
    <circle cx="29" cy="16" r="2" fill="#212121"/>
    <circle cx="20" cy="15" r="1" fill="#FFFFFF"/>
    <circle cx="30" cy="15" r="1" fill="#FFFFFF"/>
    
    <!-- 鼻子 -->
    <path d="M24 22 L20 26 L28 26 Z" fill="#FFCDD2"/>
    <ellipse cx="24" cy="24" rx="2" ry="1" fill="#E57373"/>
    
    <!-- 嘴巴 -->
    <path d="M24 26 Q20 28 16 26" stroke="#212121" stroke-width="1.5" fill="none"/>
    <path d="M24 26 Q28 28 32 26" stroke="#212121" stroke-width="1.5" fill="none"/>
    
    <!-- 胡须 -->
    <line x1="8" y1="20" x2="16" y2="20" stroke="#212121" stroke-width="1.5"/>
    <line x1="8" y1="24" x2="16" y2="24" stroke="#212121" stroke-width="1.5"/>
    <line x1="32" y1="20" x2="40" y2="20" stroke="#212121" stroke-width="1.5"/>
    <line x1="32" y1="24" x2="40" y2="24" stroke="#212121" stroke-width="1.5"/>
    
    <!-- 爪子 -->
    <ellipse cx="14" cy="40" rx="4" ry="6" fill="#FF9800"/>
    <ellipse cx="34" cy="40" rx="4" ry="6" fill="#FF9800"/>
    
    <!-- 尾巴 -->
    <path d="M6 30 Q2 26 4 34 Q8 38 12 34 Q10 30 6 30" fill="#FF9800"/>
    <path d="M8 32 Q6 30 10 30" stroke="#212121" stroke-width="1" fill="none"/>
  </g>
</svg>